Coordinates
version=1
nRows=21
nColumns=33
inDegrees=yes

Units are S.I. units (second, meters, Newtons, ...)
Angles are in degrees.

endheader
time	ground_thorax_rot_x	ground_thorax_rot_y	ground_thorax_rot_z	ground_thorax_tx	ground_thorax_ty	ground_thorax_tz	clav_prot_r	clav_elev_r	scapula_abduction_r	scapula_elevation_r	scapula_upward_rot_r	scapula_winging_r	shoulder_elv_r	plane_of_elev_r	axial_rot_r	elbow_flexion_r	pro_sup_r	wrist_flex_r	wrist_dev_r	clav_prot_l	clav_elev_l	scapula_abduction_l	scapula_elevation_l	scapula_upward_rot_l	scapula_winging_l	shoulder_elv_l	plane_of_elev_l	axial_rot_l	elbow_flexion_l	pro_sup_l	wrist_flex_l	wrist_dev_l
      2.78000000	    -19.57737699	    -29.68644916	     54.35545681	     55.60861399	    797.01468589	    -46.73205626	     28.08701981	    -45.00000000	     40.15700652	    -45.00000000	    -45.00000000	   -100.80975030	  -2805.52130862	     20.85658970	   -145.85252171	   1801.40904664	   -182.06134411	     13.79209231	     10.30790954	     -0.14681834	     30.74633601	    -29.37359913	    -45.00000000	    -45.00000000	  -3517.72644023	   -449.56878553	    133.33473755	   -103.78559295	   1790.77236244	     46.14773223	     11.13792751	    -16.18293325
      2.79000000	    -19.88345022	    -29.53992916	     53.93678268	     52.62295698	    797.96575530	    -46.73106015	     28.05689592	    -45.00000000	     40.15190103	    -45.00000000	    -45.00000000	   -100.86977909	  -2805.41645503	     20.92066667	   -146.15996247	   1801.41535010	   -181.56207632	     13.85774951	     10.39970340	     -0.09362001	     30.87048358	    -29.56936776	    -45.00000000	    -45.00000000	  -3517.48702548	   -449.44644495	    133.30620712	   -103.67612801	   1790.80145042	     46.15052121	     11.22163777	    -16.26715721
      2.80000000	    -20.21670549	    -29.36402086	     53.45532313	     49.55655564	    798.94640963	    -46.73159718	     28.02511902	    -45.00000000	     40.11652596	    -45.00000000	    -45.00000000	   -100.95056218	  -2805.28457805	     21.03310606	   -146.39651305	   1801.40979499	   -181.11200137	     13.92372405	     10.50318701	     -0.05795703	     30.97967103	    -29.76180257	    -45.00000000	    -45.00000000	  -3517.24443210	   -449.31911033	    133.24025569	   -103.56313216	   1790.80615270	     46.12788979	     11.32013826	    -16.34820394
      2.81000000	    -20.47844903	    -29.26289380	     53.09302299	     46.39688738	    799.97044815	    -46.74210993	     27.98819805	    -45.00000000	     40.23660174	    -45.00000000	    -45.00000000	   -101.08179320	  -2805.22032404	     21.01486922	   -146.66996300	   1801.27371761	   -180.66668824	     14.01937940	     10.66426669	     -0.02040034	     31.07771806	    -29.89706886	    -45.00000000	    -45.00000000	  -3517.06682884	   -449.22383140	    133.28897471	   -103.53571633	   1790.81537454	     46.07942585	     11.42275875	    -16.43578005
      2.82000000	    -20.86977725	    -29.05227924	     52.52589051	     43.16383226	    801.03664477	    -46.76140412	     27.93243153	    -45.00000000	     40.15775607	    -45.00000000	    -45.00000000	   -101.13377717	  -2805.08386685	     21.11468905	   -147.00276648	   1801.24135368	   -180.29247015	     14.10054882	     10.77208198	      0.03176804	     31.12612740	    -30.12586588	    -45.00000000	    -45.00000000	  -3516.85014000	   -449.12446911	    133.22299804	   -103.47307921	   1790.79904813	     46.03048794	     11.49621535	    -16.48957142
      2.83000000	    -21.23965873	    -28.88876888	     52.00762064	     39.87128768	    802.14470815	    -46.78112449	     27.89073516	    -45.00000000	     40.12676158	    -45.00000000	    -45.00000000	   -101.21614911	  -2804.98383536	     21.20261126	   -147.28346923	   1801.23101487	   -179.95524743	     14.16980606	     10.90266054	      0.07004350	     31.19450313	    -30.32561671	    -45.00000000	    -45.00000000	  -3516.61113655	   -449.02994505	    133.16668652	   -103.44675321	   1790.80377122	     45.98185625	     11.57596606	    -16.56428056
      2.84000000	    -21.53286346	    -28.80241208	     51.57521848	     36.53270473	    803.29343310	    -46.79353400	     27.84529206	    -45.00000000	     40.23655541	    -45.00000000	    -45.00000000	   -101.34106563	  -2804.94866073	     21.19177733	   -147.52287976	   1801.08804420	   -179.65993906	     14.27825758	     11.09093490	      0.10780828	     31.31120130	    -30.40550275	    -45.00000000	    -45.00000000	  -3516.44915919	   -448.90770106	    133.22301596	   -103.46161972	   1790.83153077	     45.93297428	     11.64902757	    -16.64920885
      2.85000000	    -21.95355724	    -28.59153454	     50.99884463	     33.16109216	    804.47976907	    -46.79184913	     27.78074108	    -45.00000000	     40.12891664	    -45.00000000	    -45.00000000	   -101.39384608	  -2804.83631135	     21.28455202	   -147.82937089	   1801.09215257	   -179.47806607	     14.36174290	     11.21809180	      0.16108096	     31.38139305	    -30.62866847	    -45.00000000	    -45.00000000	  -3516.21761039	   -448.82681651	    133.16696712	   -103.43866430	   1790.82270807	     45.90513052	     11.71743279	    -16.73140107
      2.86000000	    -22.29907411	    -28.45859610	     50.51801032	     29.76528397	    805.69788908	    -46.77053328	     27.74652313	    -45.00000000	     40.16570203	    -45.00000000	    -45.00000000	   -101.53235515	  -2804.77436242	     21.30610500	   -148.04028151	   1801.00513466	   -179.38136866	     14.45504430	     11.38609689	      0.17977422	     31.44801160	    -30.74841302	    -45.00000000	    -45.00000000	  -3516.04359659	   -448.70154891	    133.15957445	   -103.43849913	   1790.84422003	     45.89374910	     11.77299107	    -16.82315679
      2.87000000	    -22.76510096	    -28.26320742	     49.88974744	     26.35260135	    806.94202360	    -46.72545250	     27.68188829	    -45.00000000	     40.00427655	    -45.00000000	    -45.00000000	   -101.57911721	  -2804.69181435	     21.41173508	   -148.37290217	   1801.02685405	   -179.40935724	     14.51645106	     11.51117651	      0.21867751	     31.46462115	    -31.01455612	    -45.00000000	    -45.00000000	  -3515.75950053	   -448.68198855	    133.09130029	   -103.52272194	   1790.87329739	     45.90154174	     11.83141878	    -16.94390379
      2.88000000	    -23.16541885	    -28.06017192	     49.27219131	     22.91778984	    808.21033646	    -46.65361667	     27.63822345	    -45.00000000	     39.94567326	    -45.00000000	    -45.00000000	   -101.70807549	  -2804.57866236	     21.53910586	   -148.56901866	   1801.00185006	   -179.51464141	     14.56743293	     11.66047044	      0.23339078	     31.51151000	    -31.19280966	    -45.00000000	    -45.00000000	  -3515.53364778	   -448.63732895	    133.00588181	   -103.50962673	   1790.86282077	     45.93169838	     11.90952139	    -17.08055139
      2.89000000	    -23.60657775	    -27.90375677	     48.65839405	     19.47095194	    809.49818991	    -46.55319591	     27.58622244	    -45.00000000	     39.88886562	    -45.00000000	    -45.00000000	   -101.82723592	  -2804.53729209	     21.62653569	   -148.77570948	   1800.90222359	   -179.70811942	     14.61903819	     11.84996450	      0.23923410	     31.61141571	    -31.36990784	    -45.00000000	    -45.00000000	  -3515.27469355	   -448.53387628	    132.96659522	   -103.56199951	   1790.93752209	     45.96456650	     11.96412320	    -17.24493308
      2.90000000	    -23.93160264	    -27.75007380	     48.11980883	     16.02295316	    810.80294119	    -46.42315273	     27.52309585	    -45.00000000	     39.97249100	    -45.00000000	    -45.00000000	   -101.94612956	  -2804.41685769	     21.62305736	   -148.92609928	   1800.80844997	   -180.00160097	     14.65197004	     11.99498404	      0.28955848	     31.72977080	    -31.44612780	    -45.00000000	    -45.00000000	  -3515.21574632	   -448.43273531	    133.01554704	   -103.60251962	   1790.91265431	     46.02247129	     12.00153455	    -17.34491853
      2.91000000	    -24.10620913	    -27.72907089	     47.78070181	     12.58323325	    812.12556432	    -46.26353200	     27.47973136	    -45.00000000	     40.23682374	    -45.00000000	    -45.00000000	   -102.03714492	  -2804.34535619	     21.49545716	   -149.06537811	   1800.77698976	   -180.43544087	     14.62508559	     12.19789412	      0.31667119	     31.76469282	    -31.34838896	    -45.00000000	    -45.00000000	  -3515.18566624	   -448.31481565	    133.12273775	   -103.81508396	   1790.91185972	     46.09544905	     11.99447856	    -17.40697847
      2.92000000	    -24.48341318	    -27.56666637	     47.19158163	      9.15678376	    813.46767515	    -46.07581532	     27.42373323	    -45.00000000	     40.25562948	    -45.00000000	    -45.00000000	   -102.15794502	  -2804.26216444	     21.51506738	   -149.15810679	   1800.70367434	   -180.96799370	     14.62736592	     12.34239374	      0.33474615	     31.84029357	    -31.45662658	    -45.00000000	    -45.00000000	  -3515.03357967	   -448.24544837	    133.11009953	   -103.95057830	   1790.94983089	     46.15409005	     12.01281001	    -17.53753609
      2.93000000	    -25.06037584	    -27.26449486	     46.38731017	      5.74200082	    814.83109155	    -45.86292430	     27.37486895	    -45.00000000	     39.92554320	    -45.00000000	    -45.00000000	   -102.28538080	  -2804.13730899	     21.74509150	   -149.38149349	   1800.70695346	   -181.53205127	     14.65123376	     12.38108063	      0.30616467	     31.91588788	    -31.84238731	    -45.00000000	    -45.00000000	  -3514.66807531	   -448.30107876	    132.96674931	   -103.95634913	   1790.96798013	     46.18443386	     12.09873113	    -17.76643109
      2.94000000	    -25.44572078	    -27.04929436	     45.76877944	      2.35213552	    816.20971554	    -45.63083740	     27.31352650	    -45.00000000	     39.95705293	    -45.00000000	    -45.00000000	   -102.43970267	  -2804.06938156	     21.77895592	   -149.60984096	   1800.65577196	   -182.14409352	     14.62943247	     12.52892440	      0.32600390	     31.95652441	    -31.93692083	    -45.00000000	    -45.00000000	  -3514.58785338	   -448.19395662	    132.97060653	   -103.96004248	   1790.99277560	     46.19417462	     12.14073732	    -17.90542461
      2.95000000	    -25.75886340	    -26.92252554	     45.22485141	     -1.02009248	    817.60468264	    -45.38450244	     27.26619987	    -45.00000000	     39.98574866	    -45.00000000	    -45.00000000	   -102.52503842	  -2803.99414502	     21.78748634	   -149.78352651	   1800.68095992	   -182.81961695	     14.59434411	     12.65778222	      0.33316265	     32.02355143	    -31.99542899	    -45.00000000	    -45.00000000	  -3514.43959854	   -448.11289779	    132.98522365	   -104.03161748	   1790.97596745	     46.18009292	     12.17189890	    -18.02160900
      2.96000000	    -26.16748205	    -26.71645813	     44.59040627	     -4.37739607	    819.01529133	    -45.12949348	     27.21684829	    -45.00000000	     39.88704903	    -45.00000000	    -45.00000000	   -102.70128706	  -2803.91154810	     21.87497547	   -149.90361635	   1800.61713224	   -183.51057940	     14.60986608	     12.74539680	      0.32489398	     32.07643052	    -32.15303167	    -45.00000000	    -45.00000000	  -3514.23602148	   -448.08783900	    132.93161253	   -104.08991249	   1790.99899501	     46.12277606	     12.23428221	    -18.19169921
      2.97000000	    -26.60420553	    -26.51603054	     43.86742866	     -7.71001733	    820.43595033	    -44.86993398	     27.15462797	    -45.00000000	     39.86832407	    -45.00000000	    -45.00000000	   -102.81762987	  -2803.87384111	     21.95224693	   -150.11415191	   1800.53064356	   -184.20995428	     14.62167727	     12.84318686	      0.30921382	     32.14724427	    -32.28783855	    -45.00000000	    -45.00000000	  -3514.09825247	   -448.02611023	    132.96185075	   -104.17732389	   1791.06051758	     46.01611498	     12.26184602	    -18.33116766
      2.98000000	    -26.85277959	    -26.36841323	     43.39940516	    -11.02154004	    821.86793257	    -44.60775185	     27.07592513	    -45.00000000	     39.97692807	    -45.00000000	    -45.00000000	   -102.93313501	  -2803.72938982	     21.91382189	   -150.25429191	   1800.59041698	   -184.92892454	     14.56869148	     12.95634176	      0.35515142	     32.17004642	    -32.29959798	    -45.00000000	    -45.00000000	  -3514.04523134	   -447.93558947	    132.99855577	   -104.23179456	   1790.96957211	     45.88261377	     12.31164604	    -18.39866383
